<svg width="500" height="500" viewBox="0 0 500 500" fill="none" xmlns="http://www.w3.org/2000/svg">
<circle cx="250" cy="250" r="250" fill="#1F2D42"/>
<path d="M171.375 301.75V338H149.625C134.125 338 122.042 334.25 113.375 326.75C104.708 319.083 100.375 306.667 100.375 289.5V234H83.375V198.5H100.375V164.5H143.125V198.5H171.125V234H143.125V290C143.125 294.167 144.125 297.167 146.125 299C148.125 300.833 151.458 301.75 156.125 301.75H171.375ZM216.688 184C209.188 184 203.021 181.833 198.188 177.5C193.521 173 191.188 167.5 191.188 161C191.188 154.333 193.521 148.833 198.188 144.5C203.021 140 209.188 137.75 216.688 137.75C224.021 137.75 230.021 140 234.688 144.5C239.521 148.833 241.938 154.333 241.938 161C241.938 167.5 239.521 173 234.688 177.5C230.021 181.833 224.021 184 216.688 184ZM237.938 198.5V338H195.188V198.5H237.938ZM353.918 197C370.251 197 383.251 202.333 392.918 213C402.751 223.5 407.668 238 407.668 256.5V338H365.168V262.25C365.168 252.917 362.751 245.667 357.918 240.5C353.085 235.333 346.585 232.75 338.418 232.75C330.251 232.75 323.751 235.333 318.918 240.5C314.085 245.667 311.668 252.917 311.668 262.25V338H268.918V198.5H311.668V217C316.001 210.833 321.835 206 329.168 202.5C336.501 198.833 344.751 197 353.918 197Z" fill="#F14950"/>
<ellipse cx="216.5" cy="161" rx="25.5" ry="24" fill="#F2F2F2"/>
</svg>
