<svg width="177" height="79" viewBox="0 0 177 79" fill="none" xmlns="http://www.w3.org/2000/svg">
<path d="M18.65 47.75V55H14.3C11.2 55 8.78333 54.25 7.05 52.75C5.31667 51.2167 4.45 48.7333 4.45 45.3V34.2H1.05V27.1H4.45V20.3H13V27.1H18.6V34.2H13V45.4C13 46.2333 13.2 46.8333 13.6 47.2C14 47.5667 14.6667 47.75 15.6 47.75H18.65ZM27.7125 24.2C26.2125 24.2 24.9792 23.7667 24.0125 22.9C23.0792 22 22.6125 20.9 22.6125 19.6C22.6125 18.2667 23.0792 17.1667 24.0125 16.3C24.9792 15.4 26.2125 14.95 27.7125 14.95C29.1792 14.95 30.3792 15.4 31.3125 16.3C32.2792 17.1667 32.7625 18.2667 32.7625 19.6C32.7625 20.9 32.2792 22 31.3125 22.9C30.3792 23.7667 29.1792 24.2 27.7125 24.2ZM31.9625 27.1V55H23.4125V27.1H31.9625ZM55.1586 26.8C58.4253 26.8 61.0253 27.8667 62.9586 30C64.9253 32.1 65.9086 35 65.9086 38.7V55H57.4086V39.85C57.4086 37.9833 56.9253 36.5333 55.9586 35.5C54.9919 34.4667 53.6919 33.95 52.0586 33.95C50.4253 33.95 49.1253 34.4667 48.1586 35.5C47.1919 36.5333 46.7086 37.9833 46.7086 39.85V55H38.1586V27.1H46.7086V30.8C47.5753 29.5667 48.7419 28.6 50.2086 27.9C51.6753 27.1667 53.3253 26.8 55.1586 26.8ZM84.55 55.4C81.8167 55.4 79.35 54.8167 77.15 53.65C74.9833 52.4833 73.2667 50.8167 72 48.65C70.7667 46.4833 70.15 43.95 70.15 41.05C70.15 38.1833 70.7833 35.6667 72.05 33.5C73.3167 31.3 75.05 29.6167 77.25 28.45C79.45 27.2833 81.9167 26.7 84.65 26.7C87.3833 26.7 89.85 27.2833 92.05 28.45C94.25 29.6167 95.9833 31.3 97.25 33.5C98.5167 35.6667 99.15 38.1833 99.15 41.05C99.15 43.9167 98.5 46.45 97.2 48.65C95.9333 50.8167 94.1833 52.4833 91.95 53.65C89.75 54.8167 87.2833 55.4 84.55 55.4ZM84.55 48C86.1833 48 87.5667 47.4 88.7 46.2C89.8667 45 90.45 43.2833 90.45 41.05C90.45 38.8167 89.8833 37.1 88.75 35.9C87.65 34.7 86.2833 34.1 84.65 34.1C82.9833 34.1 81.6 34.7 80.5 35.9C79.4 37.0667 78.85 38.7833 78.85 41.05C78.85 43.2833 79.3833 45 80.45 46.2C81.55 47.4 82.9167 48 84.55 48Z" fill="#F14950"/>
<path d="M107.686 55.4C106.186 55.4 104.953 54.9667 103.986 54.1C103.053 53.2 102.586 52.1 102.586 50.8C102.586 49.4667 103.053 48.35 103.986 47.45C104.953 46.55 106.186 46.1 107.686 46.1C109.153 46.1 110.353 46.55 111.286 47.45C112.253 48.35 112.736 49.4667 112.736 50.8C112.736 52.1 112.253 53.2 111.286 54.1C110.353 54.9667 109.153 55.4 107.686 55.4ZM116.097 41.05C116.097 38.15 116.681 35.6167 117.847 33.45C119.047 31.2833 120.697 29.6167 122.797 28.45C124.931 27.2833 127.364 26.7 130.097 26.7C133.597 26.7 136.514 27.6167 138.847 29.45C141.214 31.2833 142.764 33.8667 143.497 37.2H134.397C133.631 35.0667 132.147 34 129.947 34C128.381 34 127.131 34.6167 126.197 35.85C125.264 37.05 124.797 38.7833 124.797 41.05C124.797 43.3167 125.264 45.0667 126.197 46.3C127.131 47.5 128.381 48.1 129.947 48.1C132.147 48.1 133.631 47.0333 134.397 44.9H143.497C142.764 48.1667 141.214 50.7333 138.847 52.6C136.481 54.4667 133.564 55.4 130.097 55.4C127.364 55.4 124.931 54.8167 122.797 53.65C120.697 52.4833 119.047 50.8167 117.847 48.65C116.681 46.4833 116.097 43.95 116.097 41.05ZM160.771 55.4C158.037 55.4 155.571 54.8167 153.371 53.65C151.204 52.4833 149.487 50.8167 148.221 48.65C146.987 46.4833 146.371 43.95 146.371 41.05C146.371 38.1833 147.004 35.6667 148.271 33.5C149.537 31.3 151.271 29.6167 153.471 28.45C155.671 27.2833 158.137 26.7 160.871 26.7C163.604 26.7 166.071 27.2833 168.271 28.45C170.471 29.6167 172.204 31.3 173.471 33.5C174.737 35.6667 175.371 38.1833 175.371 41.05C175.371 43.9167 174.721 46.45 173.421 48.65C172.154 50.8167 170.404 52.4833 168.171 53.65C165.971 54.8167 163.504 55.4 160.771 55.4ZM160.771 48C162.404 48 163.787 47.4 164.921 46.2C166.087 45 166.671 43.2833 166.671 41.05C166.671 38.8167 166.104 37.1 164.971 35.9C163.871 34.7 162.504 34.1 160.871 34.1C159.204 34.1 157.821 34.7 156.721 35.9C155.621 37.0667 155.071 38.7833 155.071 41.05C155.071 43.2833 155.604 45 156.671 46.2C157.771 47.4 159.137 48 160.771 48Z" fill="#F2F2F2"/>
<path d="M0.671997 69.164C0.671997 68.38 0.825997 67.694 1.134 67.106C1.45133 66.5087 1.88533 66.0513 2.436 65.734C2.996 65.4073 3.626 65.244 4.326 65.244C5.054 65.244 5.67933 65.412 6.202 65.748C6.734 66.084 7.11667 66.5133 7.35 67.036V65.356H8.33V73H7.35V71.306C7.10733 71.8287 6.72 72.2627 6.188 72.608C5.66533 72.944 5.04 73.112 4.312 73.112C3.62133 73.112 2.996 72.9487 2.436 72.622C1.88533 72.2953 1.45133 71.8333 1.134 71.236C0.825997 70.6387 0.671997 69.948 0.671997 69.164ZM7.35 69.178C7.35 68.562 7.224 68.0207 6.972 67.554C6.72 67.0873 6.37467 66.728 5.936 66.476C5.50667 66.224 5.03067 66.098 4.508 66.098C3.96667 66.098 3.48133 66.2193 3.052 66.462C2.62267 66.7047 2.282 67.0593 2.03 67.526C1.78733 67.9833 1.666 68.5293 1.666 69.164C1.666 69.7893 1.78733 70.34 2.03 70.816C2.282 71.2827 2.62267 71.642 3.052 71.894C3.48133 72.1367 3.96667 72.258 4.508 72.258C5.03067 72.258 5.50667 72.132 5.936 71.88C6.37467 71.628 6.72 71.2687 6.972 70.802C7.224 70.3353 7.35 69.794 7.35 69.178ZM13.9133 67.05C14.1653 66.518 14.5526 66.084 15.0753 65.748C15.6073 65.412 16.2326 65.244 16.9513 65.244C17.6513 65.244 18.2766 65.4073 18.8273 65.734C19.3779 66.0513 19.8073 66.5087 20.1153 67.106C20.4326 67.694 20.5913 68.38 20.5913 69.164C20.5913 69.948 20.4326 70.6387 20.1153 71.236C19.8073 71.8333 19.3733 72.2953 18.8133 72.622C18.2626 72.9487 17.6419 73.112 16.9513 73.112C16.2233 73.112 15.5933 72.9487 15.0613 72.622C14.5386 72.286 14.1559 71.852 13.9133 71.32V73H12.9473V62.64H13.9133V67.05ZM19.5973 69.164C19.5973 68.5293 19.4713 67.9833 19.2193 67.526C18.9766 67.0593 18.6406 66.7047 18.2113 66.462C17.7819 66.2193 17.2966 66.098 16.7553 66.098C16.2326 66.098 15.7519 66.224 15.3133 66.476C14.8839 66.728 14.5433 67.0873 14.2913 67.554C14.0393 68.0207 13.9133 68.562 13.9133 69.178C13.9133 69.794 14.0393 70.3353 14.2913 70.802C14.5433 71.2687 14.8839 71.628 15.3133 71.88C15.7519 72.132 16.2326 72.258 16.7553 72.258C17.2966 72.258 17.7819 72.1367 18.2113 71.894C18.6406 71.642 18.9766 71.2827 19.2193 70.816C19.4713 70.34 19.5973 69.7893 19.5973 69.164ZM28.1205 73.112C27.4019 73.112 26.7532 72.9533 26.1745 72.636C25.6052 72.3093 25.1525 71.852 24.8165 71.264C24.4899 70.6667 24.3265 69.9713 24.3265 69.178C24.3265 68.3847 24.4945 67.694 24.8305 67.106C25.1665 66.5087 25.6239 66.0513 26.2025 65.734C26.7812 65.4073 27.4299 65.244 28.1485 65.244C28.8672 65.244 29.5159 65.4073 30.0945 65.734C30.6825 66.0513 31.1399 66.5087 31.4665 67.106C31.8025 67.694 31.9705 68.3847 31.9705 69.178C31.9705 69.962 31.8025 70.6527 31.4665 71.25C31.1305 71.8473 30.6685 72.3093 30.0805 72.636C29.4925 72.9533 28.8392 73.112 28.1205 73.112ZM28.1205 72.258C28.6245 72.258 29.0912 72.146 29.5205 71.922C29.9499 71.6887 30.2952 71.3433 30.5565 70.886C30.8272 70.4193 30.9625 69.85 30.9625 69.178C30.9625 68.506 30.8319 67.9413 30.5705 67.484C30.3092 67.0173 29.9639 66.672 29.5345 66.448C29.1052 66.2147 28.6385 66.098 28.1345 66.098C27.6305 66.098 27.1639 66.2147 26.7345 66.448C26.3052 66.672 25.9599 67.0173 25.6985 67.484C25.4465 67.9413 25.3205 68.506 25.3205 69.178C25.3205 69.85 25.4465 70.4193 25.6985 70.886C25.9599 71.3433 26.3005 71.6887 26.7205 71.922C27.1499 72.146 27.6165 72.258 28.1205 72.258ZM42.759 65.356V73H41.779V71.656C41.555 72.132 41.2096 72.496 40.743 72.748C40.2763 73 39.7536 73.126 39.175 73.126C38.2603 73.126 37.5136 72.846 36.935 72.286C36.3563 71.7167 36.067 70.8953 36.067 69.822V65.356H37.033V69.71C37.033 70.5407 37.2383 71.1753 37.649 71.614C38.069 72.0527 38.6383 72.272 39.357 72.272C40.0943 72.272 40.6823 72.0387 41.121 71.572C41.5596 71.1053 41.779 70.4193 41.779 69.514V65.356H42.759ZM48.6503 66.182V70.928C48.6503 71.3947 48.739 71.7167 48.9163 71.894C49.0937 72.0713 49.4063 72.16 49.8543 72.16H50.7503V73H49.7003C49.0097 73 48.4963 72.8413 48.1603 72.524C47.8243 72.1973 47.6563 71.6653 47.6563 70.928V66.182H46.5923V65.356H47.6563V63.438H48.6503V65.356H50.7503V66.182H48.6503ZM60.5204 69.164C60.5204 68.38 60.679 67.694 60.9964 67.106C61.3137 66.5087 61.7477 66.0513 62.2984 65.734C62.8584 65.4073 63.4884 65.244 64.1884 65.244C64.8604 65.244 65.467 65.4073 66.0084 65.734C66.5497 66.0607 66.9464 66.4853 67.1984 67.008V62.64H68.1784V73H67.1984V71.292C66.965 71.824 66.5824 72.2627 66.0504 72.608C65.5184 72.944 64.893 73.112 64.1744 73.112C63.4744 73.112 62.8444 72.9487 62.2844 72.622C61.7337 72.2953 61.2997 71.8333 60.9824 71.236C60.6744 70.6387 60.5204 69.948 60.5204 69.164ZM67.1984 69.178C67.1984 68.562 67.0724 68.0207 66.8204 67.554C66.5684 67.0873 66.223 66.728 65.7844 66.476C65.355 66.224 64.879 66.098 64.3564 66.098C63.815 66.098 63.3297 66.2193 62.9004 66.462C62.471 66.7047 62.1304 67.0593 61.8784 67.526C61.6357 67.9833 61.5144 68.5293 61.5144 69.164C61.5144 69.7893 61.6357 70.34 61.8784 70.816C62.1304 71.2827 62.471 71.642 62.9004 71.894C63.3297 72.1367 63.815 72.258 64.3564 72.258C64.879 72.258 65.355 72.132 65.7844 71.88C66.223 71.628 66.5684 71.2687 66.8204 70.802C67.0724 70.3353 67.1984 69.794 67.1984 69.178ZM79.7116 68.786C79.7116 69.122 79.7023 69.3787 79.6836 69.556H73.3416C73.3696 70.1347 73.5096 70.6293 73.7616 71.04C74.0136 71.4507 74.345 71.7633 74.7556 71.978C75.1663 72.1833 75.6143 72.286 76.0996 72.286C76.7343 72.286 77.2663 72.132 77.6956 71.824C78.1343 71.516 78.4236 71.1007 78.5636 70.578H79.5996C79.413 71.3247 79.0116 71.936 78.3956 72.412C77.789 72.8787 77.0236 73.112 76.0996 73.112C75.381 73.112 74.737 72.9533 74.1676 72.636C73.5983 72.3093 73.1503 71.852 72.8236 71.264C72.5063 70.6667 72.3476 69.9713 72.3476 69.178C72.3476 68.3847 72.5063 67.6893 72.8236 67.092C73.141 66.4947 73.5843 66.0373 74.1536 65.72C74.723 65.4027 75.3716 65.244 76.0996 65.244C76.8276 65.244 77.4623 65.4027 78.0036 65.72C78.5543 66.0373 78.9743 66.4667 79.2636 67.008C79.5623 67.54 79.7116 68.1327 79.7116 68.786ZM78.7176 68.758C78.727 68.1887 78.6103 67.7033 78.3676 67.302C78.1343 66.9007 77.8123 66.5973 77.4016 66.392C76.991 66.1867 76.543 66.084 76.0576 66.084C75.3296 66.084 74.709 66.3173 74.1956 66.784C73.6823 67.2507 73.3976 67.9087 73.3416 68.758H78.7176ZM86.6006 72.048L89.1766 65.356H90.2126L87.1466 73H86.0406L82.9746 65.356H84.0246L86.6006 72.048ZM100.837 68.786C100.837 69.122 100.828 69.3787 100.809 69.556H94.4669C94.4949 70.1347 94.6349 70.6293 94.8869 71.04C95.1389 71.4507 95.4702 71.7633 95.8809 71.978C96.2915 72.1833 96.7395 72.286 97.2249 72.286C97.8595 72.286 98.3915 72.132 98.8209 71.824C99.2595 71.516 99.5489 71.1007 99.6889 70.578H100.725C100.538 71.3247 100.137 71.936 99.5209 72.412C98.9142 72.8787 98.1489 73.112 97.2249 73.112C96.5062 73.112 95.8622 72.9533 95.2929 72.636C94.7235 72.3093 94.2755 71.852 93.9489 71.264C93.6315 70.6667 93.4729 69.9713 93.4729 69.178C93.4729 68.3847 93.6315 67.6893 93.9489 67.092C94.2662 66.4947 94.7095 66.0373 95.2789 65.72C95.8482 65.4027 96.4969 65.244 97.2249 65.244C97.9529 65.244 98.5875 65.4027 99.1289 65.72C99.6795 66.0373 100.1 66.4667 100.389 67.008C100.688 67.54 100.837 68.1327 100.837 68.786ZM99.8429 68.758C99.8522 68.1887 99.7355 67.7033 99.4929 67.302C99.2595 66.9007 98.9375 66.5973 98.5269 66.392C98.1162 66.1867 97.6682 66.084 97.1829 66.084C96.4549 66.084 95.8342 66.3173 95.3209 66.784C94.8075 67.2507 94.5229 67.9087 94.4669 68.758H99.8429ZM105.99 62.64V73H105.01V62.64H105.99ZM113.935 73.112C113.216 73.112 112.568 72.9533 111.989 72.636C111.42 72.3093 110.967 71.852 110.631 71.264C110.304 70.6667 110.141 69.9713 110.141 69.178C110.141 68.3847 110.309 67.694 110.645 67.106C110.981 66.5087 111.438 66.0513 112.017 65.734C112.596 65.4073 113.244 65.244 113.963 65.244C114.682 65.244 115.33 65.4073 115.909 65.734C116.497 66.0513 116.954 66.5087 117.281 67.106C117.617 67.694 117.785 68.3847 117.785 69.178C117.785 69.962 117.617 70.6527 117.281 71.25C116.945 71.8473 116.483 72.3093 115.895 72.636C115.307 72.9533 114.654 73.112 113.935 73.112ZM113.935 72.258C114.439 72.258 114.906 72.146 115.335 71.922C115.764 71.6887 116.11 71.3433 116.371 70.886C116.642 70.4193 116.777 69.85 116.777 69.178C116.777 68.506 116.646 67.9413 116.385 67.484C116.124 67.0173 115.778 66.672 115.349 66.448C114.92 66.2147 114.453 66.098 113.949 66.098C113.445 66.098 112.978 66.2147 112.549 66.448C112.12 66.672 111.774 67.0173 111.513 67.484C111.261 67.9413 111.135 68.506 111.135 69.178C111.135 69.85 111.261 70.4193 111.513 70.886C111.774 71.3433 112.115 71.6887 112.535 71.922C112.964 72.146 113.431 72.258 113.935 72.258ZM122.917 67.036C123.16 66.5227 123.543 66.098 124.065 65.762C124.597 65.4167 125.227 65.244 125.955 65.244C126.646 65.244 127.267 65.4073 127.817 65.734C128.377 66.0513 128.811 66.5087 129.119 67.106C129.437 67.694 129.595 68.38 129.595 69.164C129.595 69.948 129.437 70.6387 129.119 71.236C128.811 71.8333 128.377 72.2953 127.817 72.622C127.267 72.9487 126.646 73.112 125.955 73.112C125.237 73.112 124.611 72.944 124.079 72.608C123.547 72.2627 123.16 71.8333 122.917 71.32V76.612H121.951V65.356H122.917V67.036ZM128.601 69.164C128.601 68.5293 128.475 67.9833 128.223 67.526C127.981 67.0593 127.645 66.7047 127.215 66.462C126.786 66.2193 126.301 66.098 125.759 66.098C125.237 66.098 124.756 66.224 124.317 66.476C123.888 66.728 123.547 67.0873 123.295 67.554C123.043 68.0207 122.917 68.562 122.917 69.178C122.917 69.794 123.043 70.3353 123.295 70.802C123.547 71.2687 123.888 71.628 124.317 71.88C124.756 72.132 125.237 72.258 125.759 72.258C126.301 72.258 126.786 72.1367 127.215 71.894C127.645 71.642 127.981 71.2827 128.223 70.816C128.475 70.34 128.601 69.7893 128.601 69.164ZM142.879 65.216C143.775 65.216 144.503 65.5007 145.063 66.07C145.632 66.63 145.917 67.4467 145.917 68.52V73H144.951V68.632C144.951 67.8013 144.75 67.1667 144.349 66.728C143.947 66.2893 143.401 66.07 142.711 66.07C141.992 66.07 141.418 66.308 140.989 66.784C140.559 67.26 140.345 67.9507 140.345 68.856V73H139.379V68.632C139.379 67.8013 139.178 67.1667 138.777 66.728C138.375 66.2893 137.825 66.07 137.125 66.07C136.406 66.07 135.832 66.308 135.403 66.784C134.973 67.26 134.759 67.9507 134.759 68.856V73H133.779V65.356H134.759V66.672C135.001 66.196 135.347 65.8367 135.795 65.594C136.243 65.342 136.742 65.216 137.293 65.216C137.955 65.216 138.534 65.3747 139.029 65.692C139.533 66.0093 139.897 66.476 140.121 67.092C140.326 66.4853 140.676 66.0233 141.171 65.706C141.675 65.3793 142.244 65.216 142.879 65.216ZM157.389 68.786C157.389 69.122 157.38 69.3787 157.361 69.556H151.019C151.047 70.1347 151.187 70.6293 151.439 71.04C151.691 71.4507 152.023 71.7633 152.433 71.978C152.844 72.1833 153.292 72.286 153.777 72.286C154.412 72.286 154.944 72.132 155.373 71.824C155.812 71.516 156.101 71.1007 156.241 70.578H157.277C157.091 71.3247 156.689 71.936 156.073 72.412C155.467 72.8787 154.701 73.112 153.777 73.112C153.059 73.112 152.415 72.9533 151.845 72.636C151.276 72.3093 150.828 71.852 150.501 71.264C150.184 70.6667 150.025 69.9713 150.025 69.178C150.025 68.3847 150.184 67.6893 150.501 67.092C150.819 66.4947 151.262 66.0373 151.831 65.72C152.401 65.4027 153.049 65.244 153.777 65.244C154.505 65.244 155.14 65.4027 155.681 65.72C156.232 66.0373 156.652 66.4667 156.941 67.008C157.24 67.54 157.389 68.1327 157.389 68.786ZM156.395 68.758C156.405 68.1887 156.288 67.7033 156.045 67.302C155.812 66.9007 155.49 66.5973 155.079 66.392C154.669 66.1867 154.221 66.084 153.735 66.084C153.007 66.084 152.387 66.3173 151.873 66.784C151.36 67.2507 151.075 67.9087 151.019 68.758H156.395ZM165.146 65.216C166.061 65.216 166.808 65.5007 167.386 66.07C167.965 66.63 168.254 67.4467 168.254 68.52V73H167.288V68.632C167.288 67.8013 167.078 67.1667 166.658 66.728C166.248 66.2893 165.683 66.07 164.964 66.07C164.227 66.07 163.639 66.3033 163.2 66.77C162.762 67.2367 162.542 67.9227 162.542 68.828V73H161.562V65.356H162.542V66.658C162.785 66.1913 163.135 65.8367 163.592 65.594C164.05 65.342 164.568 65.216 165.146 65.216ZM174.076 66.182V70.928C174.076 71.3947 174.164 71.7167 174.342 71.894C174.519 72.0713 174.832 72.16 175.28 72.16H176.176V73H175.126C174.435 73 173.922 72.8413 173.586 72.524C173.25 72.1973 173.082 71.6653 173.082 70.928V66.182H172.018V65.356H173.082V63.438H174.076V65.356H176.176V66.182H174.076Z" fill="#F2F2F2"/>
</svg>
