<svg width="14" height="14" viewBox="0 0 14 14" fill="none" xmlns="http://www.w3.org/2000/svg">
<path d="M13.0609 3.65756C12.435 2.58506 11.5859 1.73596 10.5135 1.11007C9.44092 0.484146 8.26999 0.171265 6.99989 0.171265C5.72994 0.171265 4.55864 0.484242 3.4863 1.11007C2.4138 1.73593 1.56476 2.58506 0.938805 3.65756C0.312946 4.73003 0 5.90117 0 7.17096C0 8.69626 0.445013 10.0679 1.33526 11.2861C2.22542 12.5044 3.37536 13.3474 4.78501 13.8153C4.94909 13.8457 5.07056 13.8243 5.14954 13.7516C5.22855 13.6787 5.26801 13.5875 5.26801 13.4782C5.26801 13.46 5.26644 13.296 5.26341 12.9861C5.26028 12.6761 5.25881 12.4057 5.25881 12.175L5.04917 12.2113C4.91551 12.2358 4.74689 12.2462 4.54331 12.2432C4.33983 12.2404 4.1286 12.2191 3.90989 12.1794C3.69109 12.1401 3.48757 12.049 3.29919 11.9062C3.11091 11.7634 2.97725 11.5765 2.89823 11.3457L2.80709 11.136C2.74634 10.9964 2.6507 10.8412 2.52004 10.6712C2.38937 10.501 2.25724 10.3857 2.12358 10.3249L2.05977 10.2792C2.01724 10.2489 1.97779 10.2122 1.9413 10.1698C1.90484 10.1273 1.87755 10.0847 1.85932 10.0422C1.84106 9.99954 1.85619 9.96458 1.90487 9.93716C1.95356 9.90974 2.04154 9.89643 2.1692 9.89643L2.35142 9.92366C2.47295 9.94802 2.62328 10.0208 2.80259 10.1424C2.98181 10.2639 3.12914 10.4218 3.2446 10.6162C3.38443 10.8654 3.55289 11.0552 3.75046 11.1859C3.94788 11.3166 4.14692 11.3818 4.3474 11.3818C4.54788 11.3818 4.72103 11.3666 4.86692 11.3364C5.01265 11.306 5.14938 11.2603 5.27704 11.1996C5.33173 10.7923 5.48062 10.4794 5.72359 10.2607C5.37728 10.2243 5.06593 10.1695 4.78938 10.0966C4.51299 10.0236 4.22737 9.90521 3.93271 9.74099C3.6379 9.577 3.39334 9.37336 3.19895 9.13042C3.00454 8.88736 2.84499 8.56825 2.72052 8.17339C2.59598 7.77837 2.5337 7.32269 2.5337 6.80624C2.5337 6.07088 2.77377 5.44512 3.2538 4.92859C3.02893 4.37574 3.05016 3.75598 3.31755 3.06937C3.49377 3.01462 3.75509 3.05571 4.1014 3.19237C4.44777 3.3291 4.70137 3.44623 4.86245 3.54334C5.02354 3.64042 5.15261 3.72269 5.24984 3.78941C5.81505 3.63148 6.39832 3.5525 6.99982 3.5525C7.60133 3.5525 8.18473 3.63148 8.74996 3.78941L9.0963 3.57076C9.33314 3.42487 9.61282 3.29118 9.93468 3.16964C10.2567 3.04817 10.503 3.01472 10.6732 3.06947C10.9465 3.75611 10.9709 4.37584 10.7459 4.92869C11.2259 5.44521 11.4661 6.07113 11.4661 6.80633C11.4661 7.32279 11.4036 7.7799 11.2793 8.17796C11.1548 8.57607 10.9938 8.89486 10.7964 9.13499C10.5988 9.37509 10.3526 9.57713 10.058 9.74109C9.76328 9.90517 9.47756 10.0236 9.20117 10.0966C8.92465 10.1696 8.6133 10.2244 8.26699 10.2609C8.58284 10.5342 8.7408 10.9656 8.7408 11.555V13.478C8.7408 13.5872 8.77879 13.6784 8.85483 13.7513C8.93078 13.8241 9.05071 13.8455 9.2148 13.815C10.6246 13.3472 11.7746 12.5042 12.6647 11.2858C13.5547 10.0676 13.9999 8.69601 13.9999 7.17071C13.9996 5.90108 13.6865 4.73003 13.0609 3.65756Z" fill="#1F2D42"/>
</svg>
