<svg width="14" height="14" viewBox="0 0 14 14" fill="none" xmlns="http://www.w3.org/2000/svg">
<path d="M7.55365 8.95683L5.93728 7.35955L5.95637 7.34046C7.06364 6.1059 7.85272 4.68682 8.31729 3.18499H10.1818V1.90909H5.72728V0.636353H4.45454V1.90909H0V3.17545H7.10818C6.67863 4.40362 6.00726 5.56816 5.09089 6.58637C4.49907 5.92773 4.00906 5.21182 3.62089 4.45454H2.34818C2.81272 5.4918 3.4491 6.47182 4.24454 7.35636L1.00863 10.5541L1.90909 11.4546L5.09092 8.27272L7.07002 10.2518L7.55365 8.95683Z" fill="#1F2D42"/>
<path d="M11.1364 5.72729H9.86364L7 13.3637H8.27274L8.98865 11.4546H12.0114L12.7273 13.3637H14L11.1364 5.72729ZM9.46592 10.1818L10.5 7.4232L11.5341 10.1818H9.46592Z" fill="#1F2D42"/>
</svg>
