<svg width="13" height="12" viewBox="0 0 13 12" fill="none" xmlns="http://www.w3.org/2000/svg">
<path d="M2.072 3.376C1.652 3.376 1.30667 3.25467 1.036 3.012C0.774667 2.76 0.644 2.452 0.644 2.088C0.644 1.71467 0.774667 1.40667 1.036 1.164C1.30667 0.911999 1.652 0.785999 2.072 0.785999C2.48267 0.785999 2.81867 0.911999 3.08 1.164C3.35067 1.40667 3.486 1.71467 3.486 2.088C3.486 2.452 3.35067 2.76 3.08 3.012C2.81867 3.25467 2.48267 3.376 2.072 3.376ZM3.262 4.188V12H0.868V4.188H3.262ZM9.75691 4.104C10.6716 4.104 11.3996 4.40267 11.9409 5C12.4916 5.588 12.7669 6.4 12.7669 7.436V12H10.3869V7.758C10.3869 7.23533 10.2516 6.82933 9.98091 6.54C9.71024 6.25067 9.34624 6.106 8.88891 6.106C8.43157 6.106 8.06757 6.25067 7.79691 6.54C7.52624 6.82933 7.39091 7.23533 7.39091 7.758V12H4.99691V4.188H7.39091V5.224C7.63357 4.87867 7.96024 4.608 8.37091 4.412C8.78157 4.20667 9.24357 4.104 9.75691 4.104Z" fill="#1F2D42"/>
</svg>
