<svg width="16" height="16" viewBox="0 0 16 16" fill="none" xmlns="http://www.w3.org/2000/svg">
<path d="M15.32 3.56C14.886 2.788 14.415 2.646 13.456 2.592C12.498 2.527 10.089 2.5 8.002 2.5C5.911 2.5 3.501 2.527 2.544 2.591C1.587 2.646 1.115 2.787 0.677 3.56C0.23 4.331 0 5.659 0 7.997C0 7.999 0 8 0 8C0 8.002 0 8.003 0 8.003V8.005C0 10.333 0.23 11.671 0.677 12.434C1.115 13.206 1.586 13.346 2.543 13.411C3.501 13.467 5.911 13.5 8.002 13.5C10.089 13.5 12.498 13.467 13.457 13.412C14.416 13.347 14.887 13.207 15.321 12.435C15.772 11.672 16 10.334 16 8.006C16 8.006 16 8.003 16 8.001C16 8.001 16 7.999 16 7.998C16 5.659 15.772 4.331 15.32 3.56Z" fill="#1F2D42"/>
<path d="M6 11V5L11 8L6 11Z" fill="#F2F2F2"/>
</svg>
